<?xml version="1.0" encoding="UTF-8" standalone="no"?>
<svg
   width="1em"
   height="1em"
   viewBox="0 0 16 16"
   version="1.1"
   id="svg4"
   xmlns="http://www.w3.org/2000/svg">
  <defs
     id="defs8" />
  <path
     fill="currentColor"
     d="M4.158 12.025a.5.5 0 0 1 .316.633l-.5 1.5a.5.5 0 1 1-.948-.316l.5-1.5a.5.5 0 0 1 .632-.317zm3 0a.5.5 0 0 1 .316.633l-1 3a.5.5 0 1 1-.948-.316l1-3a.5.5 0 0 1 .632-.317zm3 0a.5.5 0 0 1 .316.633l-.5 1.5a.5.5 0 1 1-.948-.316l.5-1.5a.5.5 0 0 1 .632-.317zm3 0a.5.5 0 0 1 .316.633l-1 3a.5.5 0 1 1-.948-.316l1-3a.5.5 0 0 1 .632-.317zm.247-6.998a5.001 5.001 0 0 0-9.499-1.004A3.5 3.5 0 1 0 3.5 11H13a3 3 0 0 0 .405-5.973z"
     id="path2"
     style="fill:#ffffff;fill-opacity:1" />
</svg>
